<svg width="1600" height="900" viewBox="0 0 1600 900" fill="none" xmlns="http://www.w3.org/2000/svg">
  <rect width="1600" height="900" fill="#0D0F12"/>
  <rect x="88" y="88" width="1424" height="724" stroke="#3A494A" stroke-width="2"/>
  <path d="M0 180H1600" stroke="#182326"/>
  <path d="M0 450H1600" stroke="#182326"/>
  <path d="M0 720H1600" stroke="#182326"/>
  <path d="M220 0V900" stroke="#182326"/>
  <path d="M800 0V900" stroke="#182326"/>
  <path d="M1380 0V900" stroke="#182326"/>
  <circle cx="1180" cy="220" r="150" fill="url(#paint0_radial)"/>

  <path d="M520 190C660 250 660 350 520 410C380 470 380 570 520 630C660 690 660 790 520 850" stroke="#00F5FF" stroke-width="8" stroke-linecap="round"/>
  <path d="M1080 190C940 250 940 350 1080 410C1220 470 1220 570 1080 630C940 690 940 790 1080 850" stroke="#571BC1" stroke-width="8" stroke-linecap="round"/>

  <path d="M520 190L1080 190" stroke="#B9CACA" stroke-opacity="0.6" stroke-width="4"/>
  <path d="M585 256L1015 256" stroke="#B9CACA" stroke-opacity="0.6" stroke-width="4"/>
  <path d="M620 322L980 322" stroke="#B9CACA" stroke-opacity="0.6" stroke-width="4"/>
  <path d="M615 388L985 388" stroke="#B9CACA" stroke-opacity="0.6" stroke-width="4"/>
  <path d="M560 454L1040 454" stroke="#B9CACA" stroke-opacity="0.6" stroke-width="4"/>
  <path d="M520 520L1080 520" stroke="#B9CACA" stroke-opacity="0.6" stroke-width="4"/>
  <path d="M560 586L1040 586" stroke="#B9CACA" stroke-opacity="0.6" stroke-width="4"/>
  <path d="M615 652L985 652" stroke="#B9CACA" stroke-opacity="0.6" stroke-width="4"/>
  <path d="M620 718L980 718" stroke="#B9CACA" stroke-opacity="0.6" stroke-width="4"/>
  <path d="M585 784L1015 784" stroke="#B9CACA" stroke-opacity="0.6" stroke-width="4"/>
  <path d="M520 850L1080 850" stroke="#B9CACA" stroke-opacity="0.6" stroke-width="4"/>

  <circle cx="520" cy="190" r="15" fill="#00F5FF"/>
  <circle cx="1080" cy="190" r="15" fill="#571BC1"/>
  <circle cx="520" cy="410" r="15" fill="#00F5FF"/>
  <circle cx="1080" cy="410" r="15" fill="#571BC1"/>
  <circle cx="520" cy="630" r="15" fill="#00F5FF"/>
  <circle cx="1080" cy="630" r="15" fill="#571BC1"/>
  <circle cx="520" cy="850" r="15" fill="#00F5FF"/>
  <circle cx="1080" cy="850" r="15" fill="#571BC1"/>

  <rect x="236" y="154" width="190" height="18" fill="#223032"/>
  <rect x="236" y="188" width="122" height="14" fill="#223032"/>
  <rect x="1174" y="154" width="190" height="18" fill="#223032"/>
  <rect x="1174" y="188" width="122" height="14" fill="#223032"/>

  <text x="214" y="138" fill="#00F5FF" font-family="Arial, sans-serif" font-size="24" letter-spacing="5">BAJA BIOTECH // DNA // MOLECULAR BIOLOGY</text>
  <text x="214" y="798" fill="#B9CACA" font-family="Arial, sans-serif" font-size="30">Cross-border biotech consulting, genetics, lab setup, and technology transfer.</text>

  <defs>
    <radialGradient id="paint0_radial" cx="0" cy="0" r="1" gradientUnits="userSpaceOnUse" gradientTransform="translate(1180 220) rotate(90) scale(150)">
      <stop stop-color="#00F5FF" stop-opacity="0.38"/>
      <stop offset="1" stop-color="#00F5FF" stop-opacity="0"/>
    </radialGradient>
  </defs>
</svg>
